HIERARCHY
ROOT Hips
{
	OFFSET -3.958830 18.904000 13.208200
	CHANNELS 6 Xposition Yposition Zposition Zrotation Yrotation Xrotation 
	JOINT LHipJoint
	{
		OFFSET 0.000000 0.000000 0.000000
		CHANNELS 3 Zrotation Yrotation Xrotation
		JOINT LeftUpLeg
		{
			OFFSET 1.800000 -1.400000 0.085000
			CHANNELS 3 Zrotation Yrotation Xrotation
			JOINT LeftLeg
			{
				OFFSET 2.215000 -6.000000 0.000000
				CHANNELS 3 Zrotation Yrotation Xrotation
				JOINT LeftFoot
				{
					OFFSET 2.500000 -6.900000 0.000000
					CHANNELS 3 Zrotation Yrotation Xrotation
					JOINT LeftToeBase
					{
						OFFSET 0.200000 -0.500000 1.950000
						CHANNELS 3 Zrotation Yrotation Xrotation
						End Site
						{
							OFFSET 0.000000 0.000000 0.000000
						}
					}
				}
			}
		}
	}
	JOINT RHipJoint
	{
		OFFSET 0.000000 0.000000 0.000000
		CHANNELS 3 Zrotation Yrotation Xrotation
		JOINT RightUpLeg
		{
			OFFSET -1.800000 -1.400000 0.085000
			CHANNELS 3 Zrotation Yrotation Xrotation
			JOINT RightLeg
			{
				OFFSET -2.215000 -6.000000 0.000000
				CHANNELS 3 Zrotation Yrotation Xrotation
				JOINT RightFoot
				{
					OFFSET -2.500000 -6.900000 0.000000
					CHANNELS 3 Zrotation Yrotation Xrotation
					JOINT RightToeBase
					{
						OFFSET -0.200000 -0.500000 1.950000
						CHANNELS 3 Zrotation Yrotation Xrotation
						End Site
						{
							OFFSET 0.000000 0.000000 0.000000
						}
					}
				}
			}
		}
	}
	JOINT LowerBack
	{
		OFFSET 0.000000 0.000000 0.000000
		CHANNELS 3 Zrotation Yrotation Xrotation
		JOINT Spine
		{
			OFFSET -0.087000 1.940000 -0.288900
			CHANNELS 3 Zrotation Yrotation Xrotation
			JOINT Spine1
			{
				OFFSET 0.000000 1.950000 0.060000
				CHANNELS 3 Zrotation Yrotation Xrotation
				JOINT Neck
				{
					OFFSET 0.000000 0.000000 0.000000
					CHANNELS 3 Zrotation Yrotation Xrotation
					JOINT Neck1
					{
						OFFSET 0.000000 1.600000 0.340000
						CHANNELS 3 Zrotation Yrotation Xrotation
						JOINT Head
						{
							OFFSET 0.000000 1.667000 -0.240000
							CHANNELS 3 Zrotation Yrotation Xrotation
							End Site
							{
								OFFSET 0.000000 0.000000 0.000000
							}
						}
					}
				}
				JOINT LeftShoulder
				{
					OFFSET 0.000000 0.000000 0.000000
					CHANNELS 3 Zrotation Yrotation Xrotation
					JOINT LeftArm
					{
						OFFSET 2.700000 1.550000 -0.730000
						CHANNELS 3 Zrotation Yrotation Xrotation
						JOINT LeftForeArm
						{
							OFFSET 5.450000 0.000000 0.000000
							CHANNELS 3 Zrotation Yrotation Xrotation
							JOINT LeftHand
							{
								OFFSET 3.450000 0.000000 0.000000
								CHANNELS 3 Zrotation Yrotation Xrotation
								JOINT LeftHandIndex1
								{
									OFFSET 0.750000 0.000000 0.000000
									CHANNELS 3 Zrotation Yrotation Xrotation
									End Site
									{
										OFFSET 0.000000 0.000000 0.000000
									}
								}
							}
						}
					}
				}
				JOINT RightShoulder
				{
					OFFSET 0.000000 0.000000 0.000000
					CHANNELS 3 Zrotation Yrotation Xrotation
					JOINT RightArm
					{
						OFFSET -2.700000 1.550000 -0.730000
						CHANNELS 3 Zrotation Yrotation Xrotation
						JOINT RightForeArm
						{
							OFFSET -5.450000 0.000000 0.000000
							CHANNELS 3 Zrotation Yrotation Xrotation
							JOINT RightHand
							{
								OFFSET -3.450000 0.000000 0.000000
								CHANNELS 3 Zrotation Yrotation Xrotation
								JOINT RightHandIndex1
								{
									OFFSET -0.750000 0.000000 0.000000
									CHANNELS 3 Zrotation Yrotation Xrotation
									End Site
									{
										OFFSET 0.000000 0.000000 0.000000
									}
								}
							}
						}
					}
				}
			}
		}
	}
}
MOTION
Frames: 10
Frame Time: 0.016667
-0.432750 17.633530 -3.434040 -6.850640 2.365313 4.661256 -15.090359 11.947127 2.908264 7.074896 -4.376462 -26.665576 -10.205190 9.299770 26.688212 -0.010497 5.442701 2.680798 0.438010 0.167490 0.294550 18.655863 -9.034192 4.556449 -5.410238 12.430579 -38.017150 -9.777350 -23.476029 113.399015 -3.584691 -17.164542 -0.655790 0.091170 0.183600 0.165530 -4.246935 -2.222449 -8.520256 13.928522 -2.952206 12.500613 -5.176961 -1.089099 0.948346 1.631521 -6.797781 -9.887234 -13.197833 3.422869 27.072913 2.845110 -1.493730 -7.598350 -28.872155 -14.400554 3.110510 -53.940618 -6.892124 -3.704796 -5.541621 -12.346996 -0.855119 -3.617822 3.131957 0.308390 0.023080 -0.036980 0.226340 25.361158 19.024637 8.066386 56.172312 1.586355 -4.815679 -0.749972 3.310092 -0.112634 2.564447 -1.465090 -0.054010 0.102980 -0.156590 -0.067300 
-0.430620 17.694170 -3.439450 -7.083431 2.064375 4.652984 -15.070883 12.023226 2.825142 7.081678 -4.099064 -25.635916 -10.092339 8.793310 24.839093 -0.075576 5.142014 2.782095 0.431900 0.149670 0.308780 18.661843 -9.083921 4.578052 -4.666724 12.512810 -38.092269 -10.162216 -22.691325 113.216886 -3.563317 -17.050477 -0.639126 0.078910 0.167140 0.171470 -4.281194 -2.216199 -8.495329 14.532954 -2.962888 12.689769 -5.251538 -1.005185 1.118463 1.773853 -6.725834 -9.987591 -13.233188 3.354681 27.723049 2.590760 -1.404830 -7.950030 -27.983735 -14.431957 3.169217 -54.789156 -7.510921 -3.960198 -6.550543 -14.150561 -0.848414 -3.605982 3.126168 0.333650 0.013170 -0.024340 0.207670 24.161363 19.008333 8.150924 56.835636 1.763863 -4.906047 -0.208579 3.535121 -0.104379 2.559136 -1.442732 -0.057490 0.099500 -0.144420 -0.083380 
-0.445630 17.808700 -3.434960 -7.355934 1.784855 5.314963 -15.056272 12.066616 2.676473 7.035022 -3.731923 -24.322684 -9.630434 7.829985 21.406633 -0.178165 4.618190 3.006849 0.380510 0.098180 0.271420 18.682513 -9.120328 4.620929 -2.889917 12.686013 -38.963152 -10.878022 -21.181555 112.786413 -3.486664 -16.902622 -0.595030 0.070560 0.222860 0.150110 -4.328302 -2.150395 -8.391676 14.963545 -2.929147 12.033704 -4.874195 -1.043023 1.380513 1.612518 -6.518270 -9.634436 -12.672388 2.971437 27.161642 2.115510 -1.519680 -6.722700 -26.651862 -13.467474 2.994835 -56.443779 -8.385103 -4.473569 -8.588470 -17.844267 -0.708293 -3.641015 3.108483 0.305570 0.057120 -0.073450 0.205500 23.110683 17.765443 7.799189 57.573719 1.581899 -5.211300 0.155459 4.471674 -0.257684 2.536849 -1.430449 -0.097910 0.130740 -0.118700 -0.081910 
-0.448540 17.940620 -3.434700 -7.908658 1.802197 5.981128 -15.018115 12.139238 2.503818 6.735906 -3.294553 -22.233872 -8.673068 6.528124 16.819413 -0.286291 3.977482 3.269770 0.347550 0.054740 0.252800 18.724118 -9.149561 4.666070 -1.335818 12.700087 -40.093725 -10.810584 -20.254265 111.161547 -3.411564 -16.732633 -0.557220 0.055590 0.249650 0.142300 -4.441236 -2.124630 -8.274835 16.557365 -3.416419 11.731371 -5.370748 -1.362116 1.047281 1.604319 -6.814633 -9.099780 -13.106309 3.006097 26.632991 1.979780 -1.608580 -6.385430 -25.685978 -11.126884 2.451110 -57.448249 -8.749065 -5.326391 -12.189743 -23.569609 -0.113617 -3.653870 3.115786 0.299130 0.075820 -0.100950 0.193790 22.017139 15.314426 7.174461 58.394399 0.803747 -6.168083 1.129176 6.947736 -0.544221 2.503602 -1.396646 -0.119220 0.144600 -0.093470 -0.086950 
-0.446260 18.061870 -3.447930 -8.079389 1.378872 6.705900 -15.016102 12.142741 2.430524 6.477405 -3.031360 -20.323651 -8.552009 5.730438 12.981258 -0.323595 3.637149 3.424407 0.336630 0.050680 0.254790 18.741390 -9.084324 4.719540 -0.469527 12.789489 -41.550062 -9.717646 -20.168548 108.584136 -3.348574 -16.563040 -0.522325 0.055180 0.260630 0.131840 -4.466984 -2.165536 -8.237899 17.291265 -3.676899 11.624390 -5.232402 -1.569000 1.311756 1.540361 -6.823485 -8.879216 -13.160133 3.191240 26.534164 1.755020 -1.222880 -6.344280 -23.764712 -9.444698 2.286196 -59.414205 -9.707521 -5.634963 -16.445805 -29.185994 1.019125 -3.657564 3.133009 0.294690 0.084750 -0.103470 0.191730 20.207033 13.392577 6.681011 58.936110 0.434234 -7.042372 3.132167 9.556952 -0.759397 2.477436 -1.369132 -0.129930 0.163450 -0.092550 -0.087720 
-0.437870 18.157600 -3.467180 -8.424448 0.541145 7.586712 -15.014136 12.083858 2.336042 6.388204 -2.784648 -18.691956 -8.263520 5.219671 10.389523 -0.388493 3.525376 3.496488 0.328910 0.032000 0.276250 18.784343 -8.957699 4.833668 0.667348 13.423884 -43.772367 -9.339634 -18.971791 106.058020 -3.247562 -16.278402 -0.473441 0.068310 0.284500 0.143990 -4.531796 -2.144422 -8.189576 18.535425 -4.106051 11.174665 -5.533974 -1.932509 1.890023 1.685037 -6.613315 -8.429500 -12.679243 3.566970 26.190944 0.201050 0.066300 -6.084630 -22.078303 -7.523466 2.003101 -60.602025 -10.747545 -5.169520 -21.153380 -34.433892 2.818632 -3.706548 3.152054 0.303070 0.124450 -0.114210 0.186230 18.152931 10.946761 5.823361 59.698447 0.759270 -7.655210 4.569466 12.234145 -0.913580 2.424812 -1.364203 -0.164730 0.180900 -0.081690 -0.112940 
-0.427080 18.216310 -3.484550 -8.627615 0.069377 8.304260 -15.006996 12.015896 2.206123 6.110708 -2.552517 -17.177797 -7.815164 4.984884 9.319441 -0.403425 3.471959 3.526098 0.377150 0.102930 0.312790 18.838739 -8.827813 4.966192 1.116799 14.028374 -46.231625 -8.454072 -18.568583 103.560250 -3.176959 -16.046648 -0.434061 0.116080 0.278920 0.154900 -4.625948 -2.090097 -8.108628 19.932701 -4.917826 10.661225 -6.176113 -2.657464 2.929821 1.575329 -6.838655 -8.075604 -12.926217 4.099776 25.393644 -0.629650 0.942120 -6.722050 -19.993127 -5.485365 1.907409 -61.270514 -11.601409 -4.426959 -27.684827 -41.122159 6.163606 -3.718475 3.235414 0.282030 0.142530 -0.103380 0.196070 16.234994 8.573981 4.944881 59.702615 1.410702 -8.138083 8.078729 16.006632 -0.822493 2.374754 -1.398418 -0.150100 0.187510 -0.105960 -0.113630 
-0.433360 18.250980 -3.503410 -8.688421 -1.090142 8.892327 -15.028194 11.970458 2.084972 6.080166 -2.381961 -15.881786 -8.141369 5.300482 10.238247 -0.407195 3.632904 3.457485 0.446280 0.192730 0.361080 18.863920 -8.648247 5.178058 2.249319 15.172833 -48.756520 -8.374694 -16.969075 101.299058 -3.091020 -15.693604 -0.374970 0.178080 0.257020 0.185100 -4.636053 -2.100903 -8.104649 20.062613 -5.231451 10.676481 -6.033545 -2.994735 3.933321 1.485392 -6.556955 -7.664090 -12.285958 4.511841 24.963231 -1.675950 2.165580 -7.486210 -19.155192 -3.780274 1.718425 -60.491259 -12.229919 -3.266769 -35.754547 -48.859641 11.693651 -3.726312 3.356209 0.274450 0.161450 -0.079010 0.211250 15.591618 6.345280 4.201197 57.839166 1.394389 -8.339551 13.450808 19.974396 -0.137929 2.308463 -1.476175 -0.130820 0.172600 -0.138450 -0.124510 
-0.432150 18.278200 -3.537870 -8.520513 -1.604254 8.630073 -15.039103 12.043616 1.981100 5.842953 -2.142505 -14.179142 -8.264308 5.837040 12.322833 -0.387161 3.879748 3.355019 0.509310 0.255630 0.425060 18.871209 -8.541733 5.337040 2.666727 15.748270 -50.539202 -7.726461 -15.671641 97.666518 -2.963913 -15.124954 -0.276465 0.212820 0.209720 0.192880 -4.631403 -2.215691 -8.127093 20.094933 -5.959388 11.685771 -6.176814 -3.581267 4.830654 1.369795 -6.562054 -7.670996 -12.523888 4.915547 25.659701 -1.579430 2.714160 -9.004300 -18.280105 -2.978187 1.875775 -58.819960 -12.497343 -2.066460 -46.617939 -56.770559 20.307923 -3.690833 3.458745 0.313440 0.126960 -0.034270 0.211010 14.983935 5.239972 3.910752 56.103322 1.312341 -8.735532 19.358545 24.830648 1.263200 2.261878 -1.540023 -0.118980 0.172220 -0.166930 -0.143020 
-0.419700 18.286890 -3.570460 -8.363719 -1.741950 7.665992 -15.058132 12.281073 1.907116 5.486809 -1.846092 -12.121736 -7.733298 6.535622 15.784439 -0.339186 4.263698 3.190876 0.512680 0.257880 0.459020 18.835720 -8.514828 5.385300 2.594567 15.455030 -51.180408 -5.980876 -15.252232 92.177285 -2.764011 -14.347275 -0.123702 0.202160 0.161590 0.196650 -4.548487 -2.526245 -8.139702 19.958100 -7.023270 13.544549 -5.843171 -4.476136 5.666601 1.323444 -6.822736 -7.974312 -13.535112 5.349161 27.081646 -2.185690 3.455980 -10.618170 -17.478350 -2.699749 2.261295 -57.375170 -12.814707 -0.744823 -58.725121 -64.973942 31.925673 -3.706647 3.494846 0.358600 0.095010 0.005970 0.173830 14.378137 4.850177 3.916742 53.836738 1.179879 -9.084023 26.219237 30.456969 3.690302 2.220627 -1.583178 -0.111920 0.170850 -0.151940 -0.168760 
